<mxfile host="app.diagrams.net" modified="2022-05-24T08:46:38.259Z" agent="5.0 (Windows NT 10.0; Win64; x64) AppleWebKit/537.36 (KHTML, like Gecko) Chrome/100.0.4896.127 Safari/537.36" etag="XegG015apHc1JXTFgg47" version="18.0.8" type="github">
  <diagram id="IdcRXWdaryGPcpSCj7aF" name="第 1 页">
    <mxGraphModel dx="652" dy="363" grid="1" gridSize="10" guides="1" tooltips="1" connect="1" arrows="1" fold="1" page="1" pageScale="1" pageWidth="827" pageHeight="1169" math="0" shadow="0">
      <root>
        <mxCell id="0" />
        <mxCell id="1" parent="0" />
        <mxCell id="ftLn0NBK0evGYFQgJe23-5" value="" style="edgeStyle=orthogonalEdgeStyle;rounded=0;orthogonalLoop=1;jettySize=auto;html=1;" edge="1" parent="1" source="ftLn0NBK0evGYFQgJe23-1" target="ftLn0NBK0evGYFQgJe23-4">
          <mxGeometry relative="1" as="geometry" />
        </mxCell>
        <mxCell id="ftLn0NBK0evGYFQgJe23-1" value="head = 头指针&lt;br&gt;node = 遍历指针&lt;br&gt;carry = 0" style="rounded=1;whiteSpace=wrap;html=1;fillColor=#d5e8d4;strokeColor=#82b366;" vertex="1" parent="1">
          <mxGeometry x="190" y="90" width="120" height="60" as="geometry" />
        </mxCell>
        <mxCell id="ftLn0NBK0evGYFQgJe23-2" value="初始化" style="text;html=1;strokeColor=none;fillColor=none;align=center;verticalAlign=middle;whiteSpace=wrap;rounded=0;" vertex="1" parent="1">
          <mxGeometry x="100" y="105" width="60" height="30" as="geometry" />
        </mxCell>
        <mxCell id="ftLn0NBK0evGYFQgJe23-11" value="" style="edgeStyle=orthogonalEdgeStyle;rounded=0;orthogonalLoop=1;jettySize=auto;html=1;" edge="1" parent="1" source="ftLn0NBK0evGYFQgJe23-4" target="ftLn0NBK0evGYFQgJe23-7">
          <mxGeometry relative="1" as="geometry" />
        </mxCell>
        <mxCell id="ftLn0NBK0evGYFQgJe23-17" value="" style="edgeStyle=orthogonalEdgeStyle;rounded=0;orthogonalLoop=1;jettySize=auto;html=1;" edge="1" parent="1" source="ftLn0NBK0evGYFQgJe23-4" target="ftLn0NBK0evGYFQgJe23-16">
          <mxGeometry relative="1" as="geometry" />
        </mxCell>
        <mxCell id="ftLn0NBK0evGYFQgJe23-4" value="l1 != null || l2 != null" style="rhombus;whiteSpace=wrap;html=1;fillColor=#d5e8d4;strokeColor=#82b366;rounded=1;" vertex="1" parent="1">
          <mxGeometry x="170" y="200" width="160" height="80" as="geometry" />
        </mxCell>
        <mxCell id="ftLn0NBK0evGYFQgJe23-6" value="两个链表是否都到头了？" style="text;html=1;strokeColor=none;fillColor=none;align=center;verticalAlign=middle;whiteSpace=wrap;rounded=0;" vertex="1" parent="1">
          <mxGeometry x="99" y="206" width="90" height="30" as="geometry" />
        </mxCell>
        <mxCell id="ftLn0NBK0evGYFQgJe23-12" value="" style="edgeStyle=orthogonalEdgeStyle;rounded=0;orthogonalLoop=1;jettySize=auto;html=1;" edge="1" parent="1" source="ftLn0NBK0evGYFQgJe23-7" target="ftLn0NBK0evGYFQgJe23-9">
          <mxGeometry relative="1" as="geometry" />
        </mxCell>
        <mxCell id="ftLn0NBK0evGYFQgJe23-7" value="取l1与l2的值&lt;br&gt;计算carry和l1,l2的值" style="rounded=1;whiteSpace=wrap;html=1;fillColor=#d5e8d4;strokeColor=#82b366;" vertex="1" parent="1">
          <mxGeometry x="190" y="320" width="120" height="60" as="geometry" />
        </mxCell>
        <mxCell id="ftLn0NBK0evGYFQgJe23-8" value="如果已经到头取0" style="text;html=1;strokeColor=none;fillColor=none;align=center;verticalAlign=middle;whiteSpace=wrap;rounded=0;" vertex="1" parent="1">
          <mxGeometry x="70" y="335" width="100" height="30" as="geometry" />
        </mxCell>
        <mxCell id="ftLn0NBK0evGYFQgJe23-13" value="" style="edgeStyle=orthogonalEdgeStyle;rounded=0;orthogonalLoop=1;jettySize=auto;html=1;" edge="1" parent="1" source="ftLn0NBK0evGYFQgJe23-9" target="ftLn0NBK0evGYFQgJe23-10">
          <mxGeometry relative="1" as="geometry" />
        </mxCell>
        <mxCell id="ftLn0NBK0evGYFQgJe23-9" value="处理好节点值与carry" style="rounded=1;whiteSpace=wrap;html=1;fillColor=#d5e8d4;strokeColor=#82b366;" vertex="1" parent="1">
          <mxGeometry x="190" y="420" width="120" height="60" as="geometry" />
        </mxCell>
        <mxCell id="ftLn0NBK0evGYFQgJe23-14" style="edgeStyle=orthogonalEdgeStyle;rounded=0;orthogonalLoop=1;jettySize=auto;html=1;exitX=0;exitY=0.5;exitDx=0;exitDy=0;" edge="1" parent="1" source="ftLn0NBK0evGYFQgJe23-10">
          <mxGeometry relative="1" as="geometry">
            <mxPoint x="170" y="240" as="targetPoint" />
            <Array as="points">
              <mxPoint x="10" y="550" />
              <mxPoint x="10" y="240" />
            </Array>
          </mxGeometry>
        </mxCell>
        <mxCell id="ftLn0NBK0evGYFQgJe23-10" value="l1,l2,node后移" style="rounded=1;whiteSpace=wrap;html=1;fillColor=#d5e8d4;strokeColor=#82b366;" vertex="1" parent="1">
          <mxGeometry x="190" y="520" width="120" height="60" as="geometry" />
        </mxCell>
        <mxCell id="ftLn0NBK0evGYFQgJe23-20" value="" style="edgeStyle=orthogonalEdgeStyle;rounded=0;orthogonalLoop=1;jettySize=auto;html=1;" edge="1" parent="1" source="ftLn0NBK0evGYFQgJe23-16" target="ftLn0NBK0evGYFQgJe23-19">
          <mxGeometry relative="1" as="geometry" />
        </mxCell>
        <mxCell id="ftLn0NBK0evGYFQgJe23-21" value="" style="edgeStyle=orthogonalEdgeStyle;rounded=0;orthogonalLoop=1;jettySize=auto;html=1;" edge="1" parent="1" source="ftLn0NBK0evGYFQgJe23-16" target="ftLn0NBK0evGYFQgJe23-18">
          <mxGeometry relative="1" as="geometry" />
        </mxCell>
        <mxCell id="ftLn0NBK0evGYFQgJe23-16" value="carry == 1?" style="rhombus;whiteSpace=wrap;html=1;fillColor=#d5e8d4;strokeColor=#82b366;rounded=1;" vertex="1" parent="1">
          <mxGeometry x="370" y="200" width="160" height="80" as="geometry" />
        </mxCell>
        <mxCell id="ftLn0NBK0evGYFQgJe23-18" value="取l1与l2的值&lt;br&gt;计算carry和l1,l2的值" style="rounded=1;whiteSpace=wrap;html=1;fillColor=#d5e8d4;strokeColor=#82b366;" vertex="1" parent="1">
          <mxGeometry x="390" y="320" width="120" height="60" as="geometry" />
        </mxCell>
        <mxCell id="ftLn0NBK0evGYFQgJe23-22" style="edgeStyle=orthogonalEdgeStyle;rounded=0;orthogonalLoop=1;jettySize=auto;html=1;exitX=0.5;exitY=1;exitDx=0;exitDy=0;entryX=1;entryY=0.5;entryDx=0;entryDy=0;" edge="1" parent="1" source="ftLn0NBK0evGYFQgJe23-19" target="ftLn0NBK0evGYFQgJe23-18">
          <mxGeometry relative="1" as="geometry" />
        </mxCell>
        <mxCell id="ftLn0NBK0evGYFQgJe23-19" value="补足最后一个节点" style="rounded=1;whiteSpace=wrap;html=1;fillColor=#d5e8d4;strokeColor=#82b366;" vertex="1" parent="1">
          <mxGeometry x="570" y="210" width="120" height="60" as="geometry" />
        </mxCell>
      </root>
    </mxGraphModel>
  </diagram>
</mxfile>
